<?xml version="1.0" standalone="no"?>
<!DOCTYPE svg PUBLIC "-//W3C//DTD SVG 20010904//EN"
 "http://www.w3.org/TR/2001/REC-SVG-20010904/DTD/svg10.dtd">
<svg version="1.0" xmlns="http://www.w3.org/2000/svg"
 width="32.000000pt" height="32.000000pt" viewBox="0 0 32.000000 32.000000"
 preserveAspectRatio="xMidYMid meet">

<g transform="translate(0.000000,32.000000) scale(0.100000,-0.100000)"
fill="#000000" stroke="none">
<path d="M18 295 c-15 -19 -18 -45 -18 -142 1 -82 5 -123 14 -136 11 -15 31
-17 140 -17 165 0 165 0 166 151 0 102 -1 106 -28 137 l-29 32 -114 0 c-109
-1 -115 -2 -131 -25z m179 -53 c12 -9 27 -37 34 -62 9 -37 8 -51 -5 -82 -9
-21 -23 -38 -31 -38 -8 0 -15 -4 -15 -10 0 -5 -9 -10 -20 -10 -11 0 -20 5 -20
10 0 6 -7 10 -15 10 -8 0 -22 17 -31 37 -13 32 -14 46 -5 83 12 45 43 80 71
80 8 0 25 -8 37 -18z m91 6 c-6 -18 -28 -21 -28 -4 0 9 7 16 16 16 9 0 14 -5
12 -12z"/>
<path d="M132 205 c-17 -37 -15 -91 4 -109 19 -20 29 -20 48 0 31 30 12 134
-24 134 -9 0 -22 -11 -28 -25z"/>
</g>
</svg>
