<?xml version="1.0" standalone="no"?>
<!DOCTYPE svg PUBLIC "-//W3C//DTD SVG 20010904//EN"
 "http://www.w3.org/TR/2001/REC-SVG-20010904/DTD/svg10.dtd">
<svg version="1.0" xmlns="http://www.w3.org/2000/svg"
 width="30.000000pt" height="41.000000pt" viewBox="0 0 30.000000 41.000000"
 preserveAspectRatio="xMidYMid meet">

<g transform="translate(0.000000,41.000000) scale(0.100000,-0.100000)"
fill="#000000" stroke="none">
<path d="M160 381 c-90 -35 -139 -61 -148 -77 -12 -21 -2 -63 32 -138 25 -56
25 -59 9 -75 -10 -9 -19 -22 -21 -30 -4 -17 26 -51 45 -51 7 0 56 20 108 44
89 42 95 47 95 74 0 17 -13 59 -29 94 -28 63 -28 96 -2 113 18 10 13 43 -8 55
-25 13 -27 13 -81 -9z m67 -9 c21 -13 -7 -62 -35 -62 -12 0 -40 -9 -62 -20
-25 -13 -41 -16 -45 -9 -11 17 3 56 22 62 10 3 36 13 58 21 47 18 47 18 62 8z
m-172 -102 c-8 -37 -2 -37 67 -5 66 31 72 31 86 0 15 -33 15 -35 -2 -35 -7 0
-16 10 -19 22 -5 17 -9 19 -20 9 -8 -6 -22 -9 -31 -5 -11 4 -16 1 -16 -10 0
-9 -8 -16 -20 -16 -22 0 -28 -25 -7 -33 9 -4 9 -8 -2 -15 -16 -11 -6 -32 15
-32 8 0 14 -6 14 -13 0 -8 13 -13 34 -13 26 0 36 5 40 19 2 10 9 16 15 13 5
-4 13 -1 17 5 3 6 0 15 -7 20 -11 6 -11 11 -2 20 10 10 17 3 32 -31 11 -24 18
-47 15 -51 -2 -4 -34 -22 -71 -39 -66 -31 -82 -30 -83 7 0 7 -6 16 -14 20 -7
4 -24 36 -36 71 -13 34 -26 65 -30 67 -13 8 2 55 17 55 11 0 13 -7 8 -30z
m123 -74 c4 -21 -14 -37 -35 -29 -14 5 -18 35 -6 47 12 12 38 1 41 -18z m-88
-141 c0 -18 -4 -22 -20 -18 -22 6 -27 39 -7 46 19 7 27 -2 27 -28z"/>
</g>
</svg>
