<?xml version="1.0" standalone="no"?>
<!DOCTYPE svg PUBLIC "-//W3C//DTD SVG 20010904//EN"
 "http://www.w3.org/TR/2001/REC-SVG-20010904/DTD/svg10.dtd">
<svg version="1.0" xmlns="http://www.w3.org/2000/svg"
 width="34.000000pt" height="32.000000pt" viewBox="0 0 34.000000 32.000000"
 preserveAspectRatio="xMidYMid meet">

<g transform="translate(0.000000,32.000000) scale(0.100000,-0.100000)"
fill="#000000" stroke="none">
<path d="M82 248 c-73 -68 -91 -97 -65 -105 6 -2 40 23 76 56 35 34 70 61 77
61 6 0 41 -27 77 -60 36 -33 70 -60 75 -60 21 0 21 34 0 48 -16 11 -22 24 -22
53 0 35 -3 39 -25 39 -14 0 -25 -5 -25 -11 0 -6 -16 3 -35 20 -20 17 -40 31
-45 31 -6 0 -45 -32 -88 -72z"/>
<path d="M92 187 l-63 -64 3 -59 3 -59 45 0 45 0 3 46 c2 31 10 53 23 64 18
17 20 17 38 0 13 -11 21 -33 23 -64 l3 -46 45 0 45 0 3 59 3 59 -63 64 c-34
35 -69 63 -78 63 -9 0 -44 -28 -78 -63z"/>
</g>
</svg>
