<?xml version="1.0" standalone="no"?>
<!DOCTYPE svg PUBLIC "-//W3C//DTD SVG 20010904//EN"
 "http://www.w3.org/TR/2001/REC-SVG-20010904/DTD/svg10.dtd">
<svg version="1.0" xmlns="http://www.w3.org/2000/svg"
 width="34.000000pt" height="33.000000pt" viewBox="0 0 34.000000 33.000000"
 preserveAspectRatio="xMidYMid meet">

<g transform="translate(0.000000,33.000000) scale(0.100000,-0.100000)"
fill="#000000" stroke="none">
<path d="M104 320 c-11 -4 -34 -22 -51 -39 -138 -138 34 -355 203 -256 145 85
82 307 -88 304 -23 0 -52 -4 -64 -9z m86 -56 c11 -12 10 -18 -3 -32 -16 -15
-18 -15 -34 0 -13 14 -14 20 -3 32 7 9 16 16 20 16 4 0 13 -7 20 -16z m-5
-140 c0 -55 -3 -69 -15 -69 -11 0 -16 15 -18 59 -3 66 2 90 21 83 8 -2 12 -26
12 -73z"/>
</g>
</svg>
