<?xml version="1.0" standalone="no"?>
<!DOCTYPE svg PUBLIC "-//W3C//DTD SVG 20010904//EN"
 "http://www.w3.org/TR/2001/REC-SVG-20010904/DTD/svg10.dtd">
<svg version="1.0" xmlns="http://www.w3.org/2000/svg"
 width="24.000000pt" height="32.000000pt" viewBox="0 0 24.000000 32.000000"
 preserveAspectRatio="xMidYMid meet">

<g transform="translate(0.000000,32.000000) scale(0.100000,-0.100000)"
fill="#000000" stroke="none">
<path d="M52 297 c-14 -15 -22 -36 -22 -59 0 -20 -7 -41 -15 -48 -12 -10 -15
-31 -13 -99 l3 -86 115 0 115 0 3 86 c2 68 -1 89 -13 99 -9 7 -15 28 -15 50 0
30 -6 43 -26 59 -38 30 -103 28 -132 -2z m122 -23 c9 -8 16 -29 16 -45 l0 -29
-70 0 c-68 0 -70 1 -70 26 0 47 17 64 65 64 26 0 50 -6 59 -16z m-27 -140 c3
-9 1 -25 -5 -35 -7 -10 -12 -26 -12 -34 0 -8 -4 -15 -10 -15 -5 0 -10 10 -10
23 0 13 -5 28 -11 34 -7 7 -9 19 -6 27 8 21 46 20 54 0z"/>
</g>
</svg>
