<?xml version="1.0" standalone="no"?>
<!DOCTYPE svg PUBLIC "-//W3C//DTD SVG 20010904//EN"
 "http://www.w3.org/TR/2001/REC-SVG-20010904/DTD/svg10.dtd">
<svg version="1.0" xmlns="http://www.w3.org/2000/svg"
 width="16.000000pt" height="16.000000pt" viewBox="0 0 16.000000 16.000000"
 preserveAspectRatio="xMidYMid meet">

<g transform="translate(0.000000,16.000000) scale(0.100000,-0.100000)"
fill="#000000" stroke="none">
<path d="M17 142 c-35 -38 -10 -92 41 -92 15 0 38 -12 54 -27 22 -21 31 -24
40 -15 9 9 6 18 -15 40 -15 16 -27 39 -27 54 0 52 -59 77 -93 40z m64 -2 c21
-12 25 -50 7 -68 -39 -39 -100 17 -63 58 21 23 29 24 56 10z"/>
</g>
</svg>
