<?xml version="1.0" standalone="no"?>
<!DOCTYPE svg PUBLIC "-//W3C//DTD SVG 20010904//EN"
 "http://www.w3.org/TR/2001/REC-SVG-20010904/DTD/svg10.dtd">
<svg version="1.0" xmlns="http://www.w3.org/2000/svg"
 width="33.000000pt" height="33.000000pt" viewBox="0 0 33.000000 33.000000"
 preserveAspectRatio="xMidYMid meet">

<g transform="translate(0.000000,33.000000) scale(0.100000,-0.100000)"
fill="#000000" stroke="none">
<path d="M137 324 c-4 -4 -7 -18 -7 -31 0 -27 -7 -29 -32 -6 -34 31 -86 -21
-55 -55 23 -25 22 -30 -10 -34 -24 -3 -28 -8 -28 -33 0 -25 4 -30 28 -33 32
-4 33 -9 10 -34 -31 -34 21 -86 55 -55 25 23 30 22 34 -10 3 -24 8 -28 33 -28
25 0 30 4 33 28 4 32 9 33 34 10 21 -18 42 -12 62 20 7 12 6 21 -7 35 -23 25
-22 30 11 34 23 3 27 8 27 33 0 25 -4 30 -27 33 -32 4 -34 9 -12 33 34 37 -18
89 -55 55 -24 -22 -29 -20 -33 12 -2 20 -9 28 -28 30 -14 2 -29 0 -33 -4z m62
-89 c58 -29 58 -111 0 -140 -38 -20 -42 -19 -78 11 -43 36 -43 82 0 118 36 30
40 31 78 11z"/>
<path d="M120 210 c-40 -40 -11 -110 45 -110 56 0 85 70 45 110 -11 11 -31 20
-45 20 -14 0 -34 -9 -45 -20z"/>
</g>
</svg>
