<?xml version="1.0" standalone="no"?>
<!DOCTYPE svg PUBLIC "-//W3C//DTD SVG 20010904//EN"
 "http://www.w3.org/TR/2001/REC-SVG-20010904/DTD/svg10.dtd">
<svg version="1.0" xmlns="http://www.w3.org/2000/svg"
 width="32.000000pt" height="28.000000pt" viewBox="0 0 32.000000 28.000000"
 preserveAspectRatio="xMidYMid meet">

<g transform="translate(0.000000,28.000000) scale(0.100000,-0.100000)"
fill="#000000" stroke="none">
<path d="M35 204 l-38 -68 24 -44 c46 -88 52 -92 135 -92 l74 0 23 38 c60 94
60 92 22 163 l-33 64 -85 3 -85 3 -37 -67z m204 -19 l29 -46 -25 -44 -25 -45
-64 0 c-62 0 -65 1 -84 32 -25 42 -25 72 1 114 20 32 23 34 80 34 l59 0 29
-45z"/>
<path d="M91 191 c-25 -35 -26 -52 -5 -97 16 -34 19 -35 66 -32 46 3 52 6 71
40 l21 36 -20 39 c-18 35 -24 38 -66 41 -41 3 -48 0 -67 -27z"/>
</g>
</svg>
