<?xml version="1.0" standalone="no"?>
<!DOCTYPE svg PUBLIC "-//W3C//DTD SVG 20010904//EN"
 "http://www.w3.org/TR/2001/REC-SVG-20010904/DTD/svg10.dtd">
<svg version="1.0" xmlns="http://www.w3.org/2000/svg"
 width="24.000000pt" height="32.000000pt" viewBox="0 0 24.000000 32.000000"
 preserveAspectRatio="xMidYMid meet">

<g transform="translate(0.000000,32.000000) scale(0.100000,-0.100000)"
fill="#000000" stroke="none">
<path d="M56 299 c-20 -16 -26 -29 -26 -59 0 -22 -6 -43 -15 -50 -12 -10 -15
-31 -13 -99 l3 -86 115 0 115 0 3 83 c2 53 -1 89 -9 98 -8 10 -36 14 -95 14
l-84 0 0 29 c0 16 7 37 16 45 21 21 102 22 110 1 6 -16 34 -21 34 -7 0 5 -10
18 -23 30 -31 29 -95 30 -131 1z m91 -165 c3 -8 1 -20 -6 -27 -6 -6 -11 -21
-11 -34 0 -13 -4 -23 -10 -23 -5 0 -10 7 -10 15 0 8 -5 24 -12 34 -6 10 -8 26
-5 35 8 20 46 21 54 0z"/>
</g>
</svg>
